<?xml version="1.0" encoding="UTF-8" standalone="no"?>
<svg width="512" height="512" viewBox="0 0 512 512" fill="none" xmlns="http://www.w3.org/2000/svg">
  <rect width="512" height="512" rx="100" fill="#0F172A"/>
  <path d="M256 120C180.5 120 120 180.5 120 256C120 331.5 180.5 392 256 392C331.5 392 392 331.5 392 256C392 180.5 331.5 120 256 120ZM256 372C191.6 372 140 320.4 140 256C140 191.6 191.6 140 256 140C320.4 140 372 191.6 372 256C372 320.4 320.4 372 256 372Z" fill="url(#paint0_linear)"/>
  <path d="M256 160V256.5L323 323.5" stroke="url(#paint1_linear)" stroke-width="24" stroke-linecap="round" stroke-linejoin="round"/>
  <defs>
    <linearGradient id="paint0_linear" x1="120" y1="120" x2="392" y2="392" gradientUnits="userSpaceOnUse">
      <stop stop-color="#6366F1"/>
      <stop offset="0.5" stop-color="#8B5CF6"/>
      <stop offset="1" stop-color="#EC4899"/>
    </linearGradient>
    <linearGradient id="paint1_linear" x1="256" y1="160" x2="323" y2="323.5" gradientUnits="userSpaceOnUse">
      <stop stop-color="#6366F1"/>
      <stop offset="0.5" stop-color="#8B5CF6"/>
      <stop offset="1" stop-color="#EC4899"/>
    </linearGradient>
  </defs>
</svg>
