<svg width="32" height="32" viewBox="0 0 32 32" fill="none" xmlns="http://www.w3.org/2000/svg">
  <rect width="32" height="32" rx="8" fill="url(#gradient)"/>
  <path d="M8 12C8 10.8954 8.89543 10 10 10H14C15.1046 10 16 10.8954 16 12V14C16 15.1046 15.1046 16 14 16H10C8.89543 16 8 15.1046 8 14V12Z" fill="white"/>
  <path d="M16 18C16 16.8954 16.8954 16 18 16H22C23.1046 16 24 16.8954 24 18V20C24 21.1046 23.1046 22 22 22H18C16.8954 22 16 21.1046 16 20V18Z" fill="white"/>
  <path d="M8 20C8 18.8954 8.89543 18 10 18H14C15.1046 18 16 18.8954 16 20V22C16 23.1046 15.1046 24 14 24H10C8.89543 24 8 23.1046 8 22V20Z" fill="white"/>
  <defs>
    <linearGradient id="gradient" x1="0" y1="0" x2="32" y2="32" gradientUnits="userSpaceOnUse">
      <stop stop-color="#7C3AED"/>
      <stop offset="0.5" stop-color="#3B82F6"/>
      <stop offset="1" stop-color="#10B981"/>
    </linearGradient>
  </defs>
</svg>