<?xml version="1.0" encoding="UTF-8"?>
<svg version="1.1" viewBox="0 0 2048 920" width="574" height="258" xmlns="http://www.w3.org/2000/svg">
<path transform="translate(0)" d="m0 0h2048v920h-2048z" fill="#FAFCFC"/>
<path transform="translate(429,254)" d="m0 0h11l10 3 11 6 15 14 106 106 7 10 5 12v16l-5 12-8 11-18 18h-2l3 5 15 14 9 12 5 11 1 4v12l-4 11-7 11-16 17-36 36h-2v2l-8 7-30 30-7 8-10 10-8 7-7 6-12 6-3 1h-16l-11-4-9-6-13-12-106-106-7-10-4-9-1-6v-10l1-6 4 2 7 8 69 69 12 7 8 2h13l13-4 13-10 15-16 71-71 8-13 2-8v-12l-4-11-6-9-12-12v-2l-4-2-74-74-9-6-11-4-9-1-11 2-10 4-13 11-16 16-7 8-47 47-3-1v-19l4-11 7-9 7-7 7-8 10-9 54-54 4-5 33-33 11-8 12-5z" fill="#78BA98"/>
<path transform="translate(382,349)" d="m0 0 12 2 8 4 10 9 80 80 6 10 2 6v7l-4 10-7 9-56 56-7 8-13 13-8 7-9 6-7 2h-8l-9-3-9-6-27-27v-2l-4-2-47-47-9-11-5-10-1-7 2-10 6-9 12-13 18-18h2l2-4 8-7 22-22 2-3h2l2-4h2l2-4 3-3h2l1-3 11-9 8-4z" fill="#C39B4B"/>
<path transform="translate(1978,809)" d="m0 0h1v5h-2l-1 4-6 11-7 8-11 10-11 7-5 3-19 6-13 3-22 1h-35l-55-1h-1520l-98 1-32-1-16-2-12-3-16-7-11-7-12-12-8-13-1-7 1 2h2l7 8 11 9 10 6 17 6 12 2 29 1h1723l33-1 15-2 15-5 11-6 9-7 9-9 6-8h2z" fill="#DBDDDE"/>
<path transform="translate(1110,366)" d="m0 0h58l2 6 7 32 4 15 3 15 3 13 5 19 7 33 1 5h2l1-10 5-23 3-13 7-28 5-24 7-30 2-10h58v186h-37l-1-30-1-109-6 28-9 41-15 66-2 4-3 1h-31l-5-1-8-33-13-58-9-42-2-5v138l-5 1h-25l-8-1z" fill="#363D4B"/>
<path transform="translate(429,254)" d="m0 0h11l10 3 11 6 15 14 106 106 7 10 5 12v16l-5 12-8 11-18 18-3 1-94-94-11-8-9-4-4-1h-14l-5 1-10-10-9-6-11-4-9-1-11 2-10 4-13 11-16 16-7 8-47 47-3-1v-19l4-11 7-9 7-7 7-8 10-9 54-54 4-5 33-33 11-8 12-5z" fill="#6D8FF2"/>
<path transform="translate(1401,366)" d="m0 0h93l17 4 11 6 10 9 6 10 4 11 2 11v19l-3 15-4 9-6 9-7 6-14 7-11 3-10 1-48 1-1 65-9 1-30-1-1-1v-184z" fill="#4B75F2"/>
<path transform="translate(840,360)" d="m0 0h14l19 3 16 6 12 8 9 9 8 16 2 7v14h-38l-4-12-4-6-9-6-10-3h-18l-12 4-7 6-2 4v12l6 7 16 6 41 10 18 6 14 8 7 7 6 11 3 17-1 15-4 13-6 10-5 6-11 8-12 6-15 4-9 1h-27l-16-3-12-4-14-8-9-8-7-11-5-15-1-6v-8l5-1h34l1 1 2 10 6 10 7 5 9 3 7 1h14l10-2 9-4 6-5 3-7v-8l-3-5-6-5-12-5-17-4-16-4-19-5-16-7-12-11-4-7-4-11-1-7v-14l4-16 6-11 6-7 11-8 10-5 16-4z" fill="#363D4B"/>
<path transform="translate(1610,410)" d="m0 0 17 1 15 3 13 5 9 6 6 8 3 8 1 8 1 86 2 6 4 5 1 5-4 2h-28l-10-1-1-1-2-11-4 2-11 8-11 5-9 2h-12l-11-2-12-6-9-9-5-10-2-9v-10l3-14 4-8 6-7 11-7 13-4 35-6 9-4 3-5-1-6-5-5-6-2h-16l-8 4-5 7-2 6h-36v-7l4-15 6-10 9-8 10-5 14-4z" fill="#4B75F2"/>
<path transform="translate(932,366)" d="m0 0h44l3 9 7 25 6 19 6 23 7 24 9 32 1 2 6-20 6-21 9-31 8-27 7-25 2-9 1-1h42l-1 8-21 61-19 56-14 41-7 19-3 2h-31l-6-2-21-62-14-41-12-35-12-36z" fill="#363C4B"/>
<path transform="translate(1682,414)" d="m0 0h41l4 9 17 57 8 27h2l6-24 18-63 3-6h39l-3 12-17 48-11 31-9 27-13 36-9 20-6 10-8 6-9 3-7 1h-21l-5-1v-29l1-1 13-1 8-3 6-9 1-7-13-37-10-29-15-42-10-29z" fill="#4B75F2"/>
<path transform="translate(428,355)" d="m0 0h14l11 4 9 6 12 11 86 86-1 5-8 7-84 84-5 4h-2v2l-10 5-6 2-13 1-6-2 2-4 76-76 8-13 2-8v-12l-4-11-6-9-12-12v-2l-4-2-63-63z" fill="#5DA897"/>
<path transform="translate(382,349)" d="m0 0 12 2 8 4v6l1 5-4 7-9 9-8 7-73 73-3 5h-2l-2 4-9 10-5 5-3 1-1 2-9-10-4-9-1-7 2-10 6-9 12-13 18-18h2l2-4 8-7 22-22 2-3h2l2-4h2l2-4 3-3h2l1-3 11-9 8-4z" fill="#C89B58"/>
<path transform="translate(384,335)" d="m0 0 13 2 12 6 12 11 85 85 7 14 1 4v12l-3 10-3 3-1-2-5 3h-3l-2 4-5 6-11 9-4 2v2l-6 5v3l-4 4h-2l-2 4-6 7h-2v2l-5 5h-2l-1 3-4 4h-2l-1 3-6 5-9 9h-2v-6l8-8 2-5 58-58 6-10 2-6v-7l-4-10-7-9-83-83-8-5-12-3-11 2-10 7-6 5-10 10-9 10-25 25-8 7-18 18-5-2-2-6 1-2-2-1 52-52 7-8 15-15 11-8 11-4z" fill="#E6F2F2"/>
<path transform="translate(507,479)" d="m0 0h1l-1 7-11 12-72 72-7 8-13 10-13 4h-13l-10-3-11-7-79-79v22h-1l-1-5v-13l2-6 5-7 5-1 76 76 10 6 7 2h8l11-4 20-18 11-11v3l-7 7-1 6 8-7h2l2-4h2l1-3 5-4 5-6 5-5h2v-2l5-5h2l2-4 5-6h2l-1-3 5-5h2v-2l10-8 3-3h2l2-4 5-6 7-3z" fill="#E6F2F2"/>
<path transform="translate(1441,400)" d="m0 0h40l11 3 7 6 4 10v13l-4 10-8 7-12 3-21 1h-17l-1-2v-50z" fill="#F9FBFB"/>
<path transform="translate(1304,462)" d="m0 0h73v35l-1 1h-72l-1-4v-31z" fill="#4C76F2"/>
<path transform="translate(384,335)" d="m0 0 13 2 12 6 12 11 25 25-1 3-3-1-5-5-14-13-11-9-6-5v-2l-5-1-11-4h-12l-7 4-5 2-1 3h-2v7l-5-1-8 7-6 7-6 5-6 7h-2l-1 3h-2l-2 4h-2v2l4 2-9 9-3 5-10 9-17 17-5-2-2-6 1-2-2-1 52-52 7-8 15-15 11-8 11-4z" fill="#E7F4F4"/>
<path transform="translate(507,479)" d="m0 0h1l-1 7-11 12-72 72-7 8-13 10-13 4h-13l-10-3-8-5-7-8-70-70-1-5 6 3 8 8 6 5 7 8 4 4v2l3 1 4 4v2l3 1v2l4 2v2l4 2v2l3 1v2l4 2v2l3 1 5 6 5 4 5 5 8 7 2 1v2l5 2v2l6 1h16l12-8 6-5 5-5 7-9 8-7h2l2-4h2l1-3 5-4 5-6 5-5h2v-2l5-5h2l2-4 5-6h2l-1-3 5-5h2v-2l10-8 3-3h2l2-4 5-6 7-3z" fill="#F3F5F5"/>
<path transform="translate(1630,489)" d="m0 0h6v11l-3 12-6 9-10 6-10 2-8-1-6-4-3-5v-12l5-7 7-4z" fill="#F8FBFB"/>
<path transform="translate(378,341)" d="m0 0h12l11 4 5 2v2l4 2 11 10 8 7 2 3-4-2-5-5-7 1-5-4-1-2-4-1-8-5-12-3-11 2-10 7-6 5-10 10-9 10-21 21v-3l8-8-3-2v-2l6-5 6-7h2l2-4h2l1-3h2l2-4h2l2-4 3-3h2l1-3 3-1h3l1-5 5-4 7-5z" fill="#DBDEDF"/>
<path transform="translate(500,460)" d="m0 0h1v21l-4 6-5 6-11 9-4 2v2l-6 5v3l-4 4h-2l-2 4-6 7h-2v2l-5 5h-2l-1 3-4 4h-2l-1 3-6 5-9 9h-2v-6l8-8 2-5 58-58 6-10 2-6z" fill="#DCDEDF"/>
<path transform="translate(278,444)" d="m0 0 1 3 9-1h4l2 6h2v5l-3 3v6l-1 2-1 6h-2l-2 3h-10l-4-4-2-3-1-7 2-10z" fill="#C39B4B"/>
<path transform="translate(282,501)" d="m0 0 6 3 8 8 6 5 7 8 4 4v2l3 1 4 4v2l3 1v2l4 2v2l4 2v2l3 1v2l4 2v2l3 1 5 6 5 4 5 5 8 7 2 1v2l5 2v2l6 1 16 1v2l-9 1-15-3-9-4-7-8-70-70z" fill="#FAFCFC"/>
<path transform="translate(408,344)" d="m0 0 5 2 33 33-1 3-3-1-5-5-14-13-11-9-6-5 1-4z" fill="#E6F2F2"/>
<path transform="translate(1147,412)" d="m0 0 2 2 3 9v5l-2-4-1 103h-1z" fill="#D7DBDB"/>
<path transform="translate(360,343)" d="m0 0 2 1-53 53-2-1 25-25 7-8 15-15z" fill="#E0E7E7"/>
<path transform="translate(421,358)" d="m0 0 4 2 8 6 13 13-1 3-3-1-5-5-14-13z" fill="#F2F6F6"/>
<path transform="translate(454,520)" d="m0 0 2 1-12 12-7 8-3 1v2h-2l2-4z" fill="#EDEFEF"/>
</svg>
